<svg width="113" height="37" viewBox="0 0 113 37" fill="none" xmlns="http://www.w3.org/2000/svg">
<g clip-path="url(#clip0_1_53)">
<path d="M28.608 6.344V6.984C27.9253 7.00533 27.4133 7.09067 27.072 7.24C26.7307 7.368 26.496 7.624 26.368 8.008C26.2613 8.37067 26.208 8.94666 26.208 9.736V25.608C26.208 26.376 26.2613 26.952 26.368 27.336C26.496 27.72 26.7307 27.976 27.072 28.104C27.4133 28.232 27.9253 28.3173 28.608 28.36V29C28.0107 28.9573 27.2533 28.936 26.336 28.936C25.44 28.9147 24.5227 28.904 23.584 28.904C22.56 28.904 21.6 28.9147 20.704 28.936C19.808 28.936 19.0827 28.9573 18.528 29V28.36C19.2533 28.3173 19.7973 28.232 20.16 28.104C20.544 27.976 20.8 27.72 20.928 27.336C21.056 26.952 21.12 26.376 21.12 25.608V8.296H21.344L13.408 29.032H12.896L4.256 8.424V23.752C4.256 24.9253 4.32 25.832 4.448 26.472C4.576 27.0907 4.85333 27.5387 5.28 27.816C5.728 28.072 6.42133 28.2533 7.36 28.36V29C6.95467 28.9573 6.42133 28.936 5.76 28.936C5.09867 28.9147 4.48 28.904 3.904 28.904C3.41333 28.904 2.912 28.9147 2.4 28.936C1.888 28.936 1.46133 28.9573 1.12 29V28.36C1.80267 28.2533 2.31467 28.072 2.656 27.816C2.99733 27.56 3.22133 27.144 3.328 26.568C3.456 25.9707 3.52 25.16 3.52 24.136V9.736C3.52 8.94666 3.456 8.37067 3.328 8.008C3.22133 7.624 2.98667 7.368 2.624 7.24C2.28267 7.09067 1.78133 7.00533 1.12 6.984V6.344C1.46133 6.36533 1.888 6.38667 2.4 6.408C2.912 6.42933 3.41333 6.44 3.904 6.44C4.82133 6.44 5.71733 6.42933 6.592 6.408C7.488 6.38667 8.27733 6.36533 8.96 6.344L15.68 22.568L14.88 23.304L21.312 6.44C21.6747 6.44 22.048 6.44 22.432 6.44C22.816 6.44 23.2 6.44 23.584 6.44C24.5227 6.44 25.44 6.42933 26.336 6.408C27.2533 6.38667 28.0107 6.36533 28.608 6.344Z" fill="white"/>
<path d="M54.176 6.344V6.984C53.4933 7.06933 52.9813 7.25067 52.64 7.528C52.2987 7.784 52.064 8.2 51.936 8.776C51.8293 9.352 51.776 10.1627 51.776 11.208V29.064C51.52 29.0427 51.2533 29.032 50.976 29.032C50.72 29.032 50.4427 29.0427 50.144 29.064L36.256 11.464V23.752C36.256 24.9253 36.32 25.832 36.448 26.472C36.576 27.0907 36.8533 27.5387 37.28 27.816C37.728 28.072 38.4213 28.2533 39.36 28.36V29C38.9547 28.9573 38.4213 28.936 37.76 28.936C37.0987 28.9147 36.48 28.904 35.904 28.904C35.4133 28.904 34.912 28.9147 34.4 28.936C33.888 28.936 33.4613 28.9573 33.12 29V28.36C33.8027 28.2533 34.3147 28.072 34.656 27.816C34.9973 27.56 35.2213 27.144 35.328 26.568C35.456 25.9707 35.52 25.16 35.52 24.136V9.736C35.52 8.94666 35.456 8.37067 35.328 8.008C35.2213 7.624 34.9867 7.368 34.624 7.24C34.2827 7.09067 33.7813 7.00533 33.12 6.984V6.344C33.4613 6.36533 33.888 6.38667 34.4 6.408C34.912 6.42933 35.4133 6.44 35.904 6.44C36.416 6.44 36.9067 6.42933 37.376 6.408C37.8453 6.38667 38.272 6.36533 38.656 6.344L51.04 21.608V11.592C51.04 10.4187 50.976 9.52267 50.848 8.904C50.72 8.264 50.432 7.80533 49.984 7.528C49.5573 7.25067 48.8747 7.06933 47.936 6.984V6.344C48.3413 6.36533 48.8747 6.38667 49.536 6.408C50.1973 6.42933 50.816 6.44 51.392 6.44C51.904 6.44 52.4053 6.42933 52.896 6.408C53.408 6.38667 53.8347 6.36533 54.176 6.344Z" fill="white"/>
<path d="M78.544 6.344C78.4587 7.432 78.3947 8.47733 78.352 9.48C78.3307 10.4827 78.32 11.2507 78.32 11.784C78.32 12.2533 78.3307 12.7013 78.352 13.128C78.3733 13.5547 78.3947 13.9173 78.416 14.216H77.68C77.3387 12.424 76.9013 11.0053 76.368 9.96C75.856 8.91467 75.2373 8.17867 74.512 7.752C73.7867 7.304 72.9333 7.08 71.952 7.08H71.216V25.352C71.216 26.2053 71.3013 26.8453 71.472 27.272C71.664 27.6987 72.0053 27.9867 72.496 28.136C72.9867 28.264 73.7013 28.3387 74.64 28.36V29C73.9787 28.9787 73.0933 28.9573 71.984 28.936C70.896 28.9147 69.7547 28.904 68.56 28.904C67.3867 28.904 66.2773 28.9147 65.232 28.936C64.1867 28.9573 63.344 28.9787 62.704 29V28.36C63.664 28.3387 64.3893 28.264 64.88 28.136C65.3707 27.9867 65.7013 27.6987 65.872 27.272C66.0427 26.8453 66.128 26.2053 66.128 25.352V7.08H65.424C64.4427 7.08 63.5893 7.304 62.864 7.752C62.1387 8.17867 61.52 8.91467 61.008 9.96C60.496 10.984 60.048 12.4027 59.664 14.216H58.928C58.9707 13.9173 58.992 13.5547 58.992 13.128C59.0133 12.7013 59.024 12.2533 59.024 11.784C59.024 11.2507 59.0027 10.4827 58.96 9.48C58.9387 8.47733 58.8853 7.432 58.8 6.344C59.7813 6.36533 60.848 6.38667 62 6.408C63.1733 6.42933 64.3467 6.44 65.52 6.44C66.6933 6.44 67.7493 6.44 68.688 6.44C69.648 6.44 70.704 6.44 71.856 6.44C73.0293 6.44 74.2027 6.42933 75.376 6.408C76.5493 6.38667 77.6053 6.36533 78.544 6.344Z" fill="white"/>
<path d="M104.176 6.344V6.984C103.493 7.06933 102.981 7.25067 102.64 7.528C102.299 7.784 102.064 8.2 101.936 8.776C101.829 9.352 101.776 10.1627 101.776 11.208V29.064C101.52 29.0427 101.253 29.032 100.976 29.032C100.72 29.032 100.443 29.0427 100.144 29.064L86.256 11.464V23.752C86.256 24.9253 86.32 25.832 86.448 26.472C86.576 27.0907 86.8533 27.5387 87.28 27.816C87.728 28.072 88.4213 28.2533 89.36 28.36V29C88.9547 28.9573 88.4213 28.936 87.76 28.936C87.0987 28.9147 86.48 28.904 85.904 28.904C85.4133 28.904 84.912 28.9147 84.4 28.936C83.888 28.936 83.4613 28.9573 83.12 29V28.36C83.8027 28.2533 84.3147 28.072 84.656 27.816C84.9973 27.56 85.2213 27.144 85.328 26.568C85.456 25.9707 85.52 25.16 85.52 24.136V9.736C85.52 8.94666 85.456 8.37067 85.328 8.008C85.2213 7.624 84.9867 7.368 84.624 7.24C84.2827 7.09067 83.7813 7.00533 83.12 6.984V6.344C83.4613 6.36533 83.888 6.38667 84.4 6.408C84.912 6.42933 85.4133 6.44 85.904 6.44C86.416 6.44 86.9067 6.42933 87.376 6.408C87.8453 6.38667 88.272 6.36533 88.656 6.344L101.04 21.608V11.592C101.04 10.4187 100.976 9.52267 100.848 8.904C100.72 8.264 100.432 7.80533 99.984 7.528C99.5573 7.25067 98.8747 7.06933 97.936 6.984V6.344C98.3413 6.36533 98.8747 6.38667 99.536 6.408C100.197 6.42933 100.816 6.44 101.392 6.44C101.904 6.44 102.405 6.42933 102.896 6.408C103.408 6.38667 103.835 6.36533 104.176 6.344Z" fill="white"/>
</g>
<defs>
<clipPath id="clip0_1_53">
<rect width="113" height="37" fill="white"/>
</clipPath>
</defs>
</svg>
